<svg height="52" viewBox="0 0 264 52" fill="none" xmlns="http://www.w3.org/2000/svg">
<rect x="12.5" y="0.5" width="239" height="39" rx="19.5" fill="white"/>
<rect x="12.5" y="0.5" width="239" height="39" rx="19.5" stroke="#F1F1F1"/>
<path d="M42 26L38 22M30 18.6667C30 19.2795 30.1207 19.8863 30.3552 20.4525C30.5898 21.0187 30.9335 21.5332 31.3668 21.9665C31.8002 22.3998 32.3146 22.7436 32.8808 22.9781C33.447 23.2126 34.0538 23.3333 34.6667 23.3333C35.2795 23.3333 35.8863 23.2126 36.4525 22.9781C37.0187 22.7436 37.5332 22.3998 37.9665 21.9665C38.3998 21.5332 38.7436 21.0187 38.9781 20.4525C39.2126 19.8863 39.3333 19.2795 39.3333 18.6667C39.3333 18.0538 39.2126 17.447 38.9781 16.8808C38.7436 16.3146 38.3998 15.8002 37.9665 15.3668C37.5332 14.9335 37.0187 14.5898 36.4525 14.3552C35.8863 14.1207 35.2795 14 34.6667 14C34.0538 14 33.447 14.1207 32.8808 14.3552C32.3146 14.5898 31.8002 14.9335 31.3668 15.3668C30.9335 15.8002 30.5898 16.3146 30.3552 16.8808C30.1207 17.447 30 18.0538 30 18.6667Z" stroke="#7D7D7D" stroke-width="1.25" stroke-linecap="round" stroke-linejoin="round"/>
<path d="M58.8011 17.3636C58.7415 16.8598 58.4995 16.4688 58.0753 16.1903C57.651 15.9119 57.1307 15.7727 56.5142 15.7727C56.0634 15.7727 55.669 15.8456 55.331 15.9915C54.9962 16.1373 54.7344 16.3378 54.5455 16.593C54.3598 16.8482 54.267 17.1383 54.267 17.4631C54.267 17.7348 54.3317 17.9685 54.4609 18.1641C54.5935 18.3563 54.7625 18.517 54.968 18.6463C55.1735 18.7723 55.389 18.8767 55.6143 18.9595C55.8397 19.0391 56.0469 19.1037 56.2358 19.1534L57.2699 19.4318C57.535 19.5014 57.83 19.5975 58.1548 19.7202C58.483 19.8428 58.7962 20.0102 59.0945 20.2223C59.3961 20.4311 59.6446 20.6996 59.8402 21.0277C60.0357 21.3558 60.1335 21.7585 60.1335 22.2358C60.1335 22.786 59.9893 23.2831 59.701 23.7273C59.416 24.1714 58.9983 24.5244 58.4482 24.7862C57.9013 25.0481 57.2367 25.179 56.4545 25.179C55.7254 25.179 55.094 25.0613 54.5604 24.826C54.0301 24.5907 53.6125 24.2625 53.3075 23.8416C53.0059 23.4207 52.8352 22.9318 52.7955 22.375H54.0682C54.1013 22.7595 54.2306 23.0777 54.456 23.3295C54.6847 23.5781 54.973 23.7637 55.321 23.8864C55.6723 24.0057 56.0502 24.0653 56.4545 24.0653C56.9252 24.0653 57.3478 23.9891 57.7223 23.8366C58.0968 23.6809 58.3935 23.4654 58.6122 23.1903C58.831 22.9119 58.9403 22.5871 58.9403 22.2159C58.9403 21.8778 58.8459 21.6027 58.657 21.3906C58.468 21.1785 58.2195 21.0062 57.9112 20.8736C57.603 20.741 57.2699 20.625 56.9119 20.5256L55.6591 20.1676C54.8636 19.9389 54.2339 19.6125 53.7699 19.1882C53.3059 18.764 53.0739 18.2088 53.0739 17.5227C53.0739 16.9527 53.228 16.4555 53.5362 16.0312C53.8478 15.6037 54.2654 15.2723 54.7891 15.0369C55.3161 14.7983 55.9044 14.679 56.554 14.679C57.2102 14.679 57.7936 14.7966 58.304 15.032C58.8144 15.264 59.2188 15.5821 59.517 15.9865C59.8187 16.3909 59.9777 16.8499 59.9943 17.3636H58.8011ZM64.9533 25.1591C64.2175 25.1591 63.5828 24.9967 63.0492 24.6719C62.5189 24.3438 62.1096 23.8864 61.8212 23.2997C61.5362 22.7098 61.3936 22.0237 61.3936 21.2415C61.3936 20.4593 61.5362 19.7699 61.8212 19.1733C62.1096 18.5734 62.5106 18.1061 63.0243 17.7713C63.5414 17.4332 64.1446 17.2642 64.834 17.2642C65.2317 17.2642 65.6245 17.3305 66.0123 17.4631C66.4 17.5956 66.753 17.8111 67.0712 18.1094C67.3894 18.4044 67.6429 18.7955 67.8319 19.2827C68.0208 19.7699 68.1152 20.3698 68.1152 21.0824V21.5795H62.2289V20.5653H66.9221C66.9221 20.1345 66.8359 19.75 66.6635 19.4119C66.4945 19.0739 66.2525 18.8071 65.9377 18.6115C65.6261 18.416 65.2582 18.3182 64.834 18.3182C64.3667 18.3182 63.9623 18.4342 63.6209 18.6662C63.2828 18.8949 63.0227 19.1932 62.8404 19.5611C62.6581 19.929 62.5669 20.3234 62.5669 20.7443V21.4205C62.5669 21.9972 62.6664 22.486 62.8652 22.8871C63.0674 23.2848 63.3475 23.5881 63.7054 23.7969C64.0634 24.0024 64.4793 24.1051 64.9533 24.1051C65.2615 24.1051 65.54 24.062 65.7885 23.9759C66.0404 23.8864 66.2575 23.7538 66.4398 23.5781C66.6221 23.3991 66.763 23.1771 66.8624 22.9119L67.9959 23.2301C67.8766 23.6146 67.6761 23.9527 67.3944 24.2443C67.1126 24.5327 66.7646 24.758 66.3503 24.9205C65.936 25.0795 65.4703 25.1591 64.9533 25.1591ZM71.8972 25.179C71.4133 25.179 70.9741 25.0878 70.5797 24.9055C70.1853 24.7199 69.8721 24.4531 69.6401 24.1051C69.4081 23.7538 69.2921 23.3295 69.2921 22.8324C69.2921 22.3949 69.3783 22.0402 69.5506 21.7685C69.723 21.4934 69.9533 21.2779 70.2417 21.1222C70.53 20.9664 70.8482 20.8504 71.1962 20.7741C71.5475 20.6946 71.9005 20.6316 72.2551 20.5852C72.7192 20.5256 73.0953 20.4808 73.3837 20.451C73.6754 20.4179 73.8875 20.3632 74.0201 20.2869C74.156 20.2107 74.2239 20.0781 74.2239 19.8892V19.8494C74.2239 19.3589 74.0897 18.9777 73.8212 18.706C73.556 18.4342 73.1534 18.2983 72.6131 18.2983C72.053 18.2983 71.6138 18.4209 71.2956 18.6662C70.9775 18.9115 70.7537 19.1733 70.6245 19.4517L69.5108 19.054C69.7097 18.59 69.9748 18.2287 70.3063 17.9702C70.641 17.7083 71.0056 17.526 71.4 17.4233C71.7978 17.3172 72.1889 17.2642 72.5733 17.2642C72.8186 17.2642 73.1003 17.294 73.4185 17.3537C73.74 17.41 74.0499 17.5277 74.3482 17.7067C74.6498 17.8857 74.9 18.1558 75.0989 18.517C75.2978 18.8783 75.3972 19.3622 75.3972 19.9688V25H74.2239V23.9659H74.1642C74.0847 24.1316 73.9521 24.3089 73.7665 24.4979C73.5809 24.6868 73.334 24.8475 73.0257 24.9801C72.7175 25.1127 72.3413 25.179 71.8972 25.179ZM72.0762 24.125C72.5402 24.125 72.9313 24.0339 73.2495 23.8516C73.571 23.6693 73.8129 23.4339 73.9753 23.1456C74.141 22.8572 74.2239 22.554 74.2239 22.2358V21.1619C74.1742 21.2216 74.0648 21.2763 73.8958 21.326C73.7301 21.3724 73.5378 21.4138 73.3191 21.4503C73.1036 21.4834 72.8932 21.5133 72.6877 21.5398C72.4855 21.563 72.3214 21.5829 72.1955 21.5994C71.8906 21.6392 71.6055 21.7038 71.3404 21.7933C71.0785 21.8795 70.8664 22.0104 70.704 22.1861C70.5449 22.3584 70.4654 22.5937 70.4654 22.892C70.4654 23.2997 70.6162 23.608 70.9178 23.8168C71.2227 24.0223 71.6088 24.125 72.0762 24.125ZM77.2887 25V17.3636H78.4222V18.517H78.5018C78.641 18.1392 78.8929 17.8326 79.2575 17.5973C79.622 17.362 80.033 17.2443 80.4904 17.2443C80.5766 17.2443 80.6843 17.246 80.8136 17.2493C80.9428 17.2526 81.0406 17.2576 81.1069 17.2642V18.4574C81.0671 18.4474 80.976 18.4325 80.8335 18.4126C80.6942 18.3894 80.5468 18.3778 80.391 18.3778C80.0198 18.3778 79.6883 18.4557 79.3967 18.6115C79.1083 18.764 78.8796 18.9761 78.7106 19.2479C78.5449 19.5163 78.462 19.8229 78.462 20.1676V25H77.2887ZM85.1175 25.1591C84.4016 25.1591 83.7852 24.9901 83.2681 24.652C82.7511 24.3139 82.3533 23.8482 82.0749 23.255C81.7965 22.6617 81.6573 21.9839 81.6573 21.2216C81.6573 20.446 81.7998 19.7616 82.0849 19.1683C82.3732 18.5717 82.7743 18.1061 83.288 17.7713C83.805 17.4332 84.4083 17.2642 85.0977 17.2642C85.6346 17.2642 86.1185 17.3636 86.5494 17.5625C86.9802 17.7614 87.3332 18.0398 87.6083 18.3977C87.8834 18.7557 88.0541 19.1733 88.1204 19.6506H86.9471C86.8576 19.3026 86.6587 18.9943 86.3505 18.7259C86.0456 18.4541 85.6346 18.3182 85.1175 18.3182C84.6602 18.3182 84.2591 18.4375 83.9144 18.6761C83.573 18.9115 83.3062 19.2446 83.114 19.6754C82.9251 20.103 82.8306 20.6051 82.8306 21.1818C82.8306 21.7718 82.9234 22.2855 83.109 22.723C83.2979 23.1605 83.5631 23.5002 83.9045 23.7422C84.2492 23.9841 84.6535 24.1051 85.1175 24.1051C85.4225 24.1051 85.6992 24.0521 85.9478 23.946C86.1964 23.84 86.4068 23.6875 86.5792 23.4886C86.7515 23.2898 86.8742 23.0511 86.9471 22.7727H88.1204C88.0541 23.2235 87.89 23.6295 87.6282 23.9908C87.3697 24.3487 87.0266 24.6338 86.5991 24.8459C86.1748 25.0547 85.681 25.1591 85.1175 25.1591ZM90.7589 20.4062V25H89.5856V14.8182H90.7589V18.5568H90.8583C91.0373 18.1624 91.3058 17.8492 91.6637 17.6172C92.025 17.3819 92.5056 17.2642 93.1055 17.2642C93.6258 17.2642 94.0816 17.3686 94.4727 17.5774C94.8638 17.7829 95.167 18.0994 95.3825 18.527C95.6012 18.9512 95.7106 19.4915 95.7106 20.1477V25H94.5373V20.2273C94.5373 19.6207 94.3799 19.1518 94.065 18.8203C93.7534 18.4856 93.3209 18.3182 92.7674 18.3182C92.3829 18.3182 92.0382 18.3994 91.7333 18.5618C91.4317 18.7242 91.1931 18.9612 91.0174 19.2727C90.8451 19.5843 90.7589 19.9621 90.7589 20.4062Z" fill="#7D7D7D"/>
</svg>